<?xml version="1.0" standalone="no"?>
<!DOCTYPE svg PUBLIC "-//W3C//DTD SVG 20010904//EN"
 "http://www.w3.org/TR/2001/REC-SVG-20010904/DTD/svg10.dtd">
<svg version="1.0" xmlns="http://www.w3.org/2000/svg"
 width="512.000000pt" height="512.000000pt" viewBox="0 0 512.000000 512.000000"
 preserveAspectRatio="xMidYMid meet">
<metadata>
Created by potrace 1.16, written by Peter Selinger 2001-2019
</metadata>
<g transform="translate(0.000000,512.000000) scale(0.100000,-0.100000)"
fill="#000000" stroke="none">
<path d="M670 4076 c-158 -35 -283 -159 -319 -317 -14 -60 -14 -2338 0 -2398
37 -161 172 -290 334 -320 83 -15 3667 -15 3750 0 166 30 304 166 335 328 14
73 14 2308 0 2382 -31 163 -168 297 -335 328 -89 17 -3690 14 -3765 -3z m3746
-292 c18 -9 43 -31 54 -49 20 -32 20 -47 20 -1175 0 -1128 0 -1143 -20 -1175
-43 -70 110 -65 -1910 -65 -2020 0 -1867 -5 -1910 65 -20 32 -20 47 -20 1175
0 1126 0 1143 20 1175 43 70 -112 65 1908 65 1655 0 1827 -1 1858 -16z"/>
<path d="M975 3520 c-33 -13 -66 -56 -76 -97 -11 -51 -11 -1247 1 -1298 6 -25
22 -52 44 -73 l36 -32 622 0 c600 0 624 1 655 20 65 39 63 11 63 735 0 724 2
696 -63 735 -31 19 -54 20 -647 19 -338 0 -624 -4 -635 -9z m1065 -745 l0
-475 -430 0 -430 0 0 475 0 475 430 0 430 0 0 -475z"/>
<path d="M2753 3151 c-87 -54 -83 -199 6 -246 26 -13 114 -15 698 -15 644 0
669 1 700 20 53 32 69 70 65 153 -1 16 -16 43 -36 65 l-34 37 -684 3 c-664 2
-684 2 -715 -17z"/>
<path d="M2761 2513 c-52 -26 -73 -67 -68 -136 3 -46 9 -63 32 -87 16 -17 46
-35 67 -40 24 -7 271 -10 687 -8 638 3 650 3 677 24 68 50 87 128 48 195 -41
72 -13 69 -749 69 -595 0 -663 -2 -694 -17z"/>
<path d="M2784 1879 c-18 -5 -46 -25 -63 -44 -26 -30 -31 -44 -31 -87 0 -62
27 -109 74 -132 30 -14 108 -16 693 -16 607 0 661 1 693 18 45 22 73 72 72
128 0 57 -27 100 -77 124 -40 19 -63 20 -686 19 -355 0 -658 -5 -675 -10z"/>
</g>
</svg>
