<?xml version="1.0" standalone="no"?>
<!DOCTYPE svg PUBLIC "-//W3C//DTD SVG 20010904//EN"
 "http://www.w3.org/TR/2001/REC-SVG-20010904/DTD/svg10.dtd">
<svg version="1.0" xmlns="http://www.w3.org/2000/svg"
 width="512.000000pt" height="512.000000pt" viewBox="0 0 512.000000 512.000000"
 preserveAspectRatio="xMidYMid meet">
<metadata>
Created by potrace 1.16, written by Peter Selinger 2001-2019
</metadata>
<g transform="translate(0.000000,512.000000) scale(0.100000,-0.100000)"
fill="#000000" stroke="none">
<path d="M45 4398 c-47 -25 -45 7 -45 -924 l0 -883 23 -24 c12 -14 113 -77
224 -141 173 -99 209 -116 246 -116 24 0 48 5 54 11 8 8 51 -12 154 -72 l144
-83 -4 -82 c-3 -73 0 -90 24 -141 42 -93 114 -156 205 -179 l45 -11 1 -75 c2
-131 65 -232 179 -289 50 -24 75 -31 127 -31 l65 0 6 -59 c10 -112 79 -208
185 -257 68 -31 183 -35 244 -9 40 17 48 14 48 -18 0 -38 60 -143 102 -180 63
-54 138 -78 228 -73 75 4 119 19 200 68 l36 21 104 -60 c58 -33 127 -65 153
-72 184 -46 376 79 394 256 l6 53 41 -15 c55 -19 164 -19 225 2 59 19 132 81
166 140 14 23 30 70 36 104 10 57 13 61 33 55 11 -4 51 -7 87 -7 118 0 218 65
276 176 22 43 27 66 28 127 0 41 -2 86 -5 99 -4 20 1 25 47 43 64 23 137 92
164 153 27 60 34 157 17 221 l-14 51 134 77 c97 57 137 75 145 67 6 -6 30 -11
54 -11 37 0 73 17 246 117 111 64 212 125 225 136 l22 20 0 889 c0 871 0 888
-20 908 -23 23 -62 34 -92 26 -31 -8 -1147 -652 -1175 -678 -13 -12 -23 -35
-25 -56 -3 -35 -7 -38 -151 -122 -89 -51 -162 -101 -185 -126 -29 -33 -48 -44
-90 -53 -116 -24 -154 -12 -416 139 -172 98 -223 122 -284 136 -87 19 -189 15
-267 -11 -27 -9 -158 -80 -291 -156 -270 -156 -268 -155 -381 -114 -48 17 -76
34 -98 61 -19 22 -88 70 -180 123 -145 84 -150 88 -156 125 -3 21 -15 46 -25
56 -10 10 -98 64 -194 119 -196 113 -231 123 -269 75 -50 -63 -27 -92 159
-199 83 -48 150 -88 150 -89 0 -5 -652 -1131 -659 -1138 -4 -4 -76 32 -161 81
l-155 89 -3 766 c-1 421 0 766 2 766 3 0 86 -47 186 -105 100 -59 192 -110
205 -115 30 -11 82 5 95 30 14 26 12 73 -2 93 -22 28 -519 307 -547 307 -14 0
-35 -6 -46 -12z m4923 -964 l-3 -766 -155 -89 c-141 -81 -156 -88 -168 -72 -7
9 -37 61 -67 114 -62 110 -91 131 -145 109 -64 -26 -65 -69 -5 -174 25 -44 45
-82 45 -85 0 -3 -53 -36 -118 -73 -116 -66 -117 -66 -129 -45 -7 12 -140 243
-296 512 l-283 490 119 68 c65 38 120 67 122 65 2 -2 72 -122 155 -268 191
-331 190 -330 241 -330 49 0 79 27 79 71 0 23 -51 120 -179 343 -99 171 -181
317 -183 324 -2 7 191 125 477 291 264 154 483 279 488 280 4 1 6 -344 5 -765z
m-2318 55 c24 -5 137 -63 250 -129 113 -65 228 -126 255 -136 73 -25 232 -25
307 2 l56 20 229 -394 c125 -218 232 -402 237 -411 9 -14 7 -14 -15 0 -113 72
-730 419 -745 419 -54 0 -92 -61 -70 -113 12 -28 73 -67 480 -301 526 -303
520 -298 521 -405 0 -67 -25 -109 -81 -136 -73 -34 -103 -23 -409 155 -154 89
-294 164 -312 167 -68 11 -112 -87 -60 -134 12 -11 130 -82 262 -158 329 -188
330 -189 354 -239 25 -50 26 -84 7 -130 -32 -77 -113 -117 -184 -93 -22 8
-166 87 -320 176 -155 89 -291 161 -305 161 -13 0 -36 -9 -51 -21 -35 -27 -37
-86 -3 -116 12 -11 106 -68 209 -127 103 -59 197 -119 208 -133 73 -93 28
-221 -88 -252 -56 -15 -82 -5 -297 119 -204 117 -237 128 -276 89 -15 -15 -19
-30 -17 -62 3 -45 0 -42 144 -132 66 -41 94 -85 94 -148 0 -65 -28 -109 -86
-138 -73 -35 -122 -22 -281 77 -21 13 -21 15 -6 61 23 75 13 167 -27 242 -67
125 -202 187 -355 161 -28 -5 -30 -3 -36 37 -24 137 -147 243 -291 251 l-68 4
0 47 c0 26 -7 68 -16 94 -21 61 -96 144 -155 171 l-46 22 13 34 c7 19 13 65
13 102 2 132 -60 232 -176 290 -58 28 -77 33 -144 33 -71 0 -84 -4 -158 -41
-44 -23 -77 -36 -73 -29 4 6 110 190 236 407 l228 395 58 -24 58 -25 -21 -47
c-29 -63 -29 -177 1 -243 67 -151 243 -232 392 -181 30 10 162 80 292 156 130
75 241 137 247 137 6 0 66 -31 134 -70 74 -42 134 -70 152 -70 62 0 99 81 58
128 -26 29 -259 161 -302 171 -21 4 -52 6 -70 3 -18 -2 -150 -72 -293 -154
-143 -82 -275 -152 -293 -155 -70 -11 -150 43 -174 119 -16 48 1 111 37 147
36 35 533 321 597 343 57 20 110 22 175 7z m-1292 -66 l118 -68 -283 -490
c-156 -269 -289 -500 -296 -512 -12 -21 -13 -21 -130 45 -64 37 -116 72 -115
77 3 13 582 1015 586 1015 1 0 55 -30 120 -67z m78 -1082 c86 -39 119 -142 71
-223 -21 -37 -46 -55 -164 -123 -124 -72 -143 -80 -190 -80 -58 0 -93 20 -131
76 -20 28 -23 44 -20 90 3 35 12 66 25 85 12 17 77 61 155 105 169 98 184 102
254 70z m212 -458 c96 -71 97 -194 0 -265 -49 -37 -143 -88 -180 -99 -104 -29
-216 86 -187 194 14 54 52 90 154 147 81 46 95 51 138 47 27 -2 60 -13 75 -24z
m348 -339 c65 -31 103 -113 85 -182 -13 -47 -55 -87 -150 -143 -58 -34 -83
-43 -121 -43 -120 0 -199 134 -139 234 26 41 39 51 138 107 84 47 130 54 187
27z m441 -295 c35 -22 73 -90 73 -132 0 -67 -46 -125 -138 -172 -96 -50 -194
-19 -234 72 -37 83 -2 160 99 219 83 49 136 52 200 13z"/>
</g>
</svg>
