<?xml version="1.0" standalone="no"?>
<!DOCTYPE svg PUBLIC "-//W3C//DTD SVG 20010904//EN"
 "http://www.w3.org/TR/2001/REC-SVG-20010904/DTD/svg10.dtd">
<svg version="1.0" xmlns="http://www.w3.org/2000/svg"
 width="512.000000pt" height="512.000000pt" viewBox="0 0 512.000000 512.000000"
 preserveAspectRatio="xMidYMid meet">
<metadata>
Created by potrace 1.16, written by Peter Selinger 2001-2019
</metadata>
<g transform="translate(0.000000,512.000000) scale(0.100000,-0.100000)"
fill="#000000" stroke="none">
<path d="M572 4279 c-76 -13 -198 -55 -262 -91 -87 -49 -201 -171 -243 -259
-51 -108 -67 -186 -67 -325 0 -207 51 -345 171 -466 128 -127 291 -183 539
-182 214 0 370 32 415 85 l25 31 0 290 0 290 -34 34 -34 34 -166 0 c-185 0
-214 -7 -241 -60 -32 -62 -9 -136 51 -165 18 -8 55 -15 83 -15 l51 0 0 -130
c0 -115 -2 -131 -17 -138 -10 -4 -65 -7 -123 -6 -141 1 -201 24 -286 108 -70
70 -102 140 -113 246 -33 326 178 515 526 472 138 -17 157 -16 192 14 67 56
58 169 -18 208 -62 32 -319 46 -449 25z"/>
<path d="M1740 4269 c-28 -12 -67 -46 -81 -71 -17 -31 -329 -1062 -329 -1086
0 -34 24 -84 54 -112 21 -19 40 -25 89 -28 57 -4 66 -1 95 23 43 36 50 50 87
185 l32 115 184 0 183 0 37 -122 c20 -66 44 -131 52 -144 29 -40 68 -59 126
-59 95 0 155 58 154 150 0 55 -311 1059 -340 1099 -36 49 -76 61 -203 60 -63
0 -126 -5 -140 -10z m204 -516 l63 -223 -134 0 c-77 0 -133 4 -133 9 0 6 22
90 48 188 27 98 55 207 63 243 12 60 14 63 21 35 5 -16 37 -130 72 -252z"/>
<path d="M2772 4263 c-38 -19 -70 -60 -77 -100 -8 -44 -65 -959 -65 -1041 0
-73 1 -75 39 -113 36 -36 43 -39 96 -39 53 0 60 3 95 38 28 28 39 48 43 82 3
25 14 232 24 461 l17 416 42 -186 c36 -156 133 -524 189 -715 23 -76 24 -76
146 -76 93 0 110 2 118 18 13 25 214 667 260 835 l40 142 0 -150 c1 -246 21
-727 31 -767 6 -21 26 -50 47 -68 34 -30 40 -32 99 -28 71 4 106 27 130 85 21
48 -38 1103 -64 1146 -35 61 -62 72 -190 75 -128 3 -167 -8 -204 -59 -23 -32
-135 -389 -193 -614 -25 -99 -49 -187 -52 -195 -3 -8 -21 55 -40 140 -44 197
-166 621 -190 662 -32 54 -73 68 -198 68 -81 0 -119 -5 -143 -17z"/>
<path d="M4350 4262 c-71 -35 -70 -22 -70 -635 0 -594 0 -592 55 -635 27 -22
34 -22 372 -22 l345 0 34 34 c30 30 34 41 34 84 0 35 -6 57 -22 77 -39 50 -68
55 -298 55 l-210 0 0 150 0 150 196 0 c218 0 240 5 269 66 21 44 19 53 -14
106 -47 74 -62 78 -271 78 l-180 0 0 130 0 130 216 0 216 0 33 33 c19 19 37
47 41 62 11 43 -15 105 -55 132 -34 23 -38 23 -345 23 -276 0 -315 -2 -346
-18z"/>
<path d="M692 2160 c-40 -11 -99 -33 -131 -50 -260 -139 -388 -485 -302 -822
58 -227 219 -393 432 -443 81 -19 233 -19 324 0 229 48 404 228 460 475 25
108 23 300 -4 403 -59 226 -221 392 -432 442 -91 21 -256 19 -347 -5z m298
-256 c117 -63 180 -204 180 -399 0 -198 -62 -334 -182 -400 -45 -25 -64 -30
-123 -30 -189 1 -307 164 -309 425 0 109 14 179 55 267 73 154 238 214 379
137z"/>
<path d="M4073 2161 c-60 -8 -98 -32 -124 -81 -18 -33 -19 -68 -19 -575 0
-507 1 -542 19 -575 27 -50 62 -73 123 -77 62 -5 106 17 138 69 18 30 20 51
20 236 l0 202 69 0 c78 0 115 -11 149 -43 37 -34 50 -66 93 -230 21 -83 47
-163 57 -177 58 -80 203 -78 253 4 27 44 24 108 -12 238 -41 155 -72 219 -129
272 l-48 45 42 25 c51 30 108 90 136 146 67 131 35 319 -69 413 -97 88 -178
108 -441 112 -113 2 -228 0 -257 -4z m407 -243 c62 -32 90 -77 90 -145 0 -122
-75 -180 -247 -190 l-93 -6 0 175 c0 96 3 178 7 181 3 4 50 7 103 7 79 0 103
-4 140 -22z"/>
<path d="M1705 2151 c-57 -24 -102 -105 -91 -164 3 -18 80 -263 171 -546 115
-359 172 -522 187 -539 41 -43 71 -52 178 -52 114 0 157 13 187 56 27 38 373
1066 373 1107 0 46 -29 98 -70 125 -29 20 -45 23 -92 20 -61 -5 -96 -27 -123
-78 -18 -35 -181 -586 -225 -765 -32 -125 -39 -145 -45 -120 -37 156 -98 386
-164 613 -82 283 -93 306 -153 338 -29 15 -101 18 -133 5z"/>
<path d="M2972 2140 c-18 -11 -41 -34 -52 -52 -19 -32 -20 -52 -20 -584 l0
-551 23 -34 c45 -68 53 -70 419 -67 l328 3 32 33 c29 29 33 39 33 87 0 48 -4
58 -33 87 l-32 33 -235 3 -235 3 0 150 0 149 190 0 c213 0 248 7 274 59 23 43
20 76 -10 121 -46 69 -51 70 -264 70 l-190 0 0 130 0 130 206 0 c227 0 255 6
287 59 21 36 22 93 2 131 -30 58 -44 60 -382 60 -290 0 -310 -1 -341 -20z"/>
</g>
</svg>
