<?xml version="1.0" standalone="no"?>
<!DOCTYPE svg PUBLIC "-//W3C//DTD SVG 20010904//EN"
 "http://www.w3.org/TR/2001/REC-SVG-20010904/DTD/svg10.dtd">
<svg version="1.0" xmlns="http://www.w3.org/2000/svg"
 width="512.000000pt" height="512.000000pt" viewBox="0 0 512.000000 512.000000"
 preserveAspectRatio="xMidYMid meet">
<metadata>
Created by potrace 1.16, written by Peter Selinger 2001-2019
</metadata>
<g transform="translate(0.000000,512.000000) scale(0.100000,-0.100000)"
fill="#000000" stroke="none">
<path d="M771 5089 c-109 -21 -220 -110 -273 -217 -26 -52 -33 -80 -36 -147
l-4 -82 -77 -6 c-42 -3 -102 -15 -134 -27 -80 -30 -167 -112 -209 -198 -31
-63 -33 -73 -33 -177 0 -102 2 -115 31 -175 52 -109 146 -187 266 -220 109
-29 266 5 350 76 l31 25 81 -79 c45 -44 91 -85 103 -91 30 -15 109 -14 141 3
15 8 93 81 174 163 121 122 147 155 153 186 14 74 0 105 -92 199 l-86 87 37
54 c64 93 86 202 62 314 -46 224 -254 357 -485 312z"/>
<path d="M4150 5084 c-267 -72 -382 -391 -224 -621 l37 -54 -86 -87 c-92 -94
-106 -125 -92 -199 6 -31 32 -64 153 -186 81 -82 159 -155 174 -163 32 -17
111 -18 141 -3 12 6 58 47 103 91 l81 79 31 -25 c84 -71 241 -105 350 -76 120
33 214 111 266 220 29 60 31 73 31 175 0 104 -2 114 -33 177 -42 86 -129 168
-209 198 -32 12 -92 24 -134 27 l-77 6 -4 82 c-4 68 -10 95 -36 148 -86 173
-283 262 -472 211z"/>
<path d="M2460 4394 c-102 -8 -220 -27 -306 -50 -614 -162 -1072 -664 -1191
-1304 -8 -47 -18 -150 -20 -230 -6 -171 5 -242 74 -478 68 -235 79 -294 103
-572 30 -352 28 -349 238 -383 82 -14 139 -28 151 -39 11 -9 24 -40 31 -75 22
-117 43 -166 79 -190 l34 -23 887 0 887 0 36 33 c37 32 44 50 82 224 8 37 43
50 175 68 141 19 187 30 214 54 42 37 48 68 67 345 20 300 26 334 97 586 77
270 87 412 47 662 -101 635 -584 1169 -1195 1322 -158 40 -356 60 -490 50z
m-470 -1695 c258 -32 373 -159 341 -378 -37 -245 -237 -412 -480 -399 -170 9
-311 101 -384 250 -58 118 -68 269 -24 354 41 78 149 144 267 163 135 22 176
23 280 10z m1410 -9 c123 -23 220 -84 263 -164 19 -35 22 -57 22 -151 0 -107
-1 -112 -38 -188 -63 -129 -172 -219 -309 -257 -67 -18 -198 -8 -270 19 -173
67 -298 245 -298 425 0 191 113 297 345 327 65 8 213 2 285 -11z m-820 -780
c9 0 193 -264 203 -293 9 -25 -20 -94 -51 -117 -22 -18 -40 -20 -181 -20 -126
0 -161 3 -179 16 -28 19 -65 91 -59 113 2 10 46 79 96 155 87 129 118 161 149
150 8 -2 17 -4 22 -4z"/>
<path d="M865 1348 c-11 -6 -56 -46 -101 -90 l-81 -79 -31 25 c-84 71 -241
105 -350 76 -120 -33 -214 -111 -266 -220 -29 -60 -31 -73 -31 -175 0 -104 2
-114 33 -177 42 -86 129 -168 209 -198 32 -12 92 -24 134 -27 l77 -6 4 -82 c4
-68 10 -95 36 -148 79 -159 261 -251 434 -219 292 54 430 385 262 629 l-37 54
86 87 c92 94 106 125 92 200 -6 30 -32 63 -153 185 -81 82 -159 155 -174 163
-32 17 -114 18 -143 2z"/>
<path d="M4105 1341 c-16 -10 -94 -83 -172 -162 -116 -119 -142 -151 -148
-181 -14 -75 0 -106 92 -200 l86 -87 -37 -54 c-64 -93 -86 -202 -62 -314 65
-314 448 -429 679 -205 72 70 110 154 115 257 l4 82 77 6 c42 3 102 15 134 27
80 30 167 112 209 198 31 63 33 73 33 177 0 102 -2 115 -31 175 -52 109 -146
187 -266 220 -109 29 -266 -5 -350 -76 l-31 -25 -81 79 c-45 44 -91 85 -103
91 -34 18 -114 13 -148 -8z"/>
</g>
</svg>
