<?xml version="1.0" standalone="no"?>
<!DOCTYPE svg PUBLIC "-//W3C//DTD SVG 20010904//EN"
 "http://www.w3.org/TR/2001/REC-SVG-20010904/DTD/svg10.dtd">
<svg version="1.0" xmlns="http://www.w3.org/2000/svg"
 width="512.000000pt" height="512.000000pt" viewBox="0 0 512.000000 512.000000"
 preserveAspectRatio="xMidYMid meet">
<metadata>
Created by potrace 1.16, written by Peter Selinger 2001-2019
</metadata>
<g transform="translate(0.000000,512.000000) scale(0.100000,-0.100000)"
fill="#000000" stroke="none">
<path d="M2279 4401 c-28 -29 -29 -32 -29 -133 0 -118 9 -140 66 -158 47 -16
95 -6 125 26 21 22 24 37 27 114 6 135 -24 180 -119 180 -31 0 -47 -7 -70 -29z"/>
<path d="M1260 4087 c-34 -17 -62 -74 -56 -115 7 -50 92 -159 134 -173 47 -16
108 5 128 42 28 55 19 105 -33 175 -59 80 -112 102 -173 71z"/>
<path d="M3370 3990 c-130 -16 -291 -67 -400 -126 l-46 -25 -104 35 c-58 19
-139 42 -180 51 -103 22 -353 31 -463 16 -623 -83 -1109 -566 -1198 -1189 -15
-108 -6 -382 16 -479 60 -272 189 -508 380 -698 208 -207 436 -330 725 -392
119 -25 420 -25 539 0 291 63 521 186 721 387 58 58 125 135 150 171 l44 66
92 11 c338 43 651 259 812 562 45 84 102 239 102 276 0 42 -27 92 -59 108 -40
21 -72 20 -166 -4 -364 -93 -746 186 -772 565 -9 148 43 308 141 428 60 74 69
98 56 148 -12 43 -35 62 -95 78 -58 14 -219 21 -295 11z m57 -232 c-67 -151
-87 -243 -87 -394 0 -58 7 -138 15 -178 80 -384 426 -675 808 -677 53 0 97 -4
97 -8 0 -16 -78 -128 -125 -180 -109 -119 -282 -220 -450 -262 -392 -96 -813
109 -990 482 -221 468 18 1021 513 1188 104 35 229 51 219 29z m-921 -28 c39
-5 103 -16 143 -25 l71 -17 -46 -48 c-87 -91 -166 -224 -217 -365 -85 -237
-80 -522 12 -761 94 -243 291 -459 526 -577 72 -36 222 -87 255 -87 39 0 29
-22 -47 -101 -251 -265 -599 -397 -946 -361 -278 29 -522 146 -722 347 -403
404 -458 1006 -136 1490 60 91 206 237 304 303 238 163 533 237 803 202z"/>
<path d="M629 3193 c-34 -21 -59 -63 -59 -101 0 -52 41 -88 133 -117 95 -30
131 -28 170 13 36 38 43 81 22 126 -20 41 -43 56 -127 80 -70 20 -106 20 -139
-1z"/>
<path d="M671 2137 c-78 -27 -106 -59 -105 -118 2 -53 30 -91 83 -108 36 -11
50 -11 106 4 90 25 122 46 135 93 23 75 -39 152 -120 152 -19 -1 -64 -11 -99
-23z"/>
<path d="M1311 1305 c-40 -34 -98 -114 -106 -147 -17 -66 42 -138 110 -138 44
1 69 18 119 85 37 49 46 68 46 103 0 24 -5 53 -11 65 -31 61 -105 76 -158 32z"/>
<path d="M3249 1291 c-23 -24 -29 -38 -29 -74 0 -37 7 -55 44 -105 53 -72 80
-92 124 -92 111 0 145 99 71 209 -51 77 -72 91 -132 91 -40 0 -53 -5 -78 -29z"/>
<path d="M2303 1005 c-45 -19 -53 -42 -53 -155 0 -99 1 -102 29 -131 51 -51
146 -36 176 26 20 44 20 176 0 215 -28 54 -90 72 -152 45z"/>
</g>
</svg>
